<?xml version="1.0" encoding="UTF-8"?>
<svg id="Layer_2" data-name="Layer 2" xmlns="http://www.w3.org/2000/svg" viewBox="0 0 282.98 287.8">
  <defs>
    <style>
      .cls-1 {
        fill: #fff;
        stroke-width: 0px;
      }
    </style>
  </defs>
  <g id="Layer_1-2" data-name="Layer 1">
    <g>
      <path class="cls-1" d="m233.49,287.8H49.48c-27.28,0-49.48-22.2-49.48-49.48v-26.26h282.98v26.26c0,27.28-22.2,49.48-49.48,49.48ZM4.13,216.19v22.13c0,25.01,20.34,45.35,45.35,45.35h184.01c25.01,0,45.35-20.34,45.35-45.35v-22.13H4.13Z"/>
      <path class="cls-1" d="m282.98,216.19H0v-17.15h282.98v17.15ZM4.13,212.06h274.71v-8.89H4.13v8.89Z"/>
      <polygon class="cls-1" points="4.13 201.1 0 201.1 0 14.59 57.3 14.59 57.3 45.95 53.16 45.95 53.16 18.72 4.13 18.72 4.13 201.1"/>
      <path class="cls-1" d="m69.78,65.97h-28.63l14.05-26.84,14.58,26.84Zm-21.8-4.13h14.86l-7.57-13.93-7.29,13.93Z"/>
      <rect class="cls-1" x="42.49" y="74.33" width="4.13" height="15.16"/>
      <rect class="cls-1" x="68.15" y="74.33" width="4.13" height="15.16"/>
      <rect class="cls-1" x="54.97" y="81.91" width="4.13" height="15.16"/>
      <rect class="cls-1" x="257.24" y="10.21" width="24.72" height="4.13"/>
      <rect class="cls-1" x="146.04" y="10.21" width="26.96" height="4.13"/>
      <path class="cls-1" d="m259.32,107.42h-88.38V0h88.38v107.42Zm-84.24-4.13h80.11V4.13h-80.11v99.16Z"/>
    </g>
  </g>
</svg>