<?xml version="1.0" encoding="UTF-8"?>
<svg id="Layer_2" data-name="Layer 2" xmlns="http://www.w3.org/2000/svg" viewBox="0 0 303.84 298.75">
  <defs>
    <style>
      .cls-1 {
        fill: #fff;
        stroke-width: 0px;
      }
    </style>
  </defs>
  <g id="Layer_1-2" data-name="Layer 1">
    <g>
      <g>
        <path class="cls-1" d="m57.9,298.75H24.38v-33.52h33.52v33.52Zm-29.39-4.13h25.25v-25.25h-25.25v25.25Z"/>
        <path class="cls-1" d="m279.46,298.75h-33.52v-33.52h33.52v33.52Zm-29.39-4.13h25.25v-25.25h-25.25v25.25Z"/>
      </g>
      <g>
        <path class="cls-1" d="m303.84,269.37H0v-77.01h303.84v77.01Zm-299.71-4.13h295.58v-68.75H4.13v68.75Z"/>
        <rect class="cls-1" x="139.74" y="84.26" width="19.49" height="4.13"/>
        <polygon class="cls-1" points="300.02 195.49 234.49 88.4 222.82 88.4 222.82 84.26 236.81 84.26 303.54 193.34 300.02 195.49"/>
        <polygon class="cls-1" points="3.87 195.42 .25 193.42 60.63 84.26 76.14 84.26 76.14 88.4 63.07 88.4 3.87 195.42"/>
        <path class="cls-1" d="m63.91,86.33h-4.13V31.27c-2.45-3.5-12.58-18.82-8.34-26.75C53.14,1.34,56.66-.17,61.92.02h87.16s0,4.13,0,4.13H61.84c-3.62-.14-5.87.65-6.76,2.32-2.51,4.7,3.84,16.56,8.44,22.93l.39.54v56.38Z"/>
        <path class="cls-1" d="m238.39,86.33h-4.13V29.95l.39-.54c4.59-6.38,10.95-18.24,8.44-22.93-.89-1.67-3.16-2.45-6.69-2.32h-87.31S149.08.01,149.08.01h87.24c5.18-.18,8.71,1.33,10.41,4.51,4.24,7.93-5.89,23.25-8.34,26.75v55.06Z"/>
      </g>
      <g>
        <path class="cls-1" d="m141.8,106.85h-67.72v-44.83h67.72v44.83Zm-63.58-4.13h59.45v-36.56h-59.45v36.56Z"/>
        <path class="cls-1" d="m224.88,106.85h-67.72v-44.83h67.72v44.83Zm-63.58-4.13h59.45v-36.56h-59.45v36.56Z"/>
      </g>
    </g>
  </g>
</svg>