<?xml version="1.0" encoding="UTF-8"?>
<svg id="Layer_2" data-name="Layer 2" xmlns="http://www.w3.org/2000/svg" viewBox="0 0 468.3 228.3">
  <defs>
    <style>
      .cls-1 {
        fill: #fff;
        stroke-width: 0px;
      }
    </style>
  </defs>
  <g id="Layer_1-2" data-name="Layer 1">
    <g>
      <g>
        <polygon class="cls-1" points="26.35 228.23 22.25 227.67 36.01 128.22 0 1.13 3.98 0 40.22 127.92 26.35 228.23"/>
        <path class="cls-1" d="m130.65,228.3l-14.3-84.04c-1.39-8.18-8.43-14.12-16.72-14.12h-61.5v-4.13h61.5c10.32,0,19.07,7.38,20.8,17.56l14.3,84.04-4.07.69Z"/>
      </g>
      <g>
        <polygon class="cls-1" points="441.95 228.23 428.08 127.92 428.2 127.51 464.33 0 468.3 1.13 432.3 128.22 446.05 227.67 441.95 228.23"/>
        <path class="cls-1" d="m337.66,228.3l-4.07-.69,14.31-84.04c1.73-10.17,10.48-17.56,20.8-17.56h61.5v4.13h-61.5c-8.3,0-15.33,5.94-16.72,14.12l-14.31,84.04Z"/>
      </g>
      <polygon class="cls-1" points="305.82 227.95 301.69 227.95 301.69 94.01 161.31 94.01 161.31 227.95 157.18 227.95 157.18 94.01 142.25 94.01 142.25 89.88 320.76 89.88 320.76 94.01 305.82 94.01 305.82 227.95"/>
    </g>
  </g>
</svg>