<?xml version="1.0" encoding="UTF-8"?>
<svg id="Layer_2" data-name="Layer 2" xmlns="http://www.w3.org/2000/svg" viewBox="0 0 352.45 482.32">
  <defs>
    <style>
      .cls-1 {
        fill: #2b7fef;
        stroke-width: 0px;
      }
    </style>
  </defs>
  <g id="Layer_1-2" data-name="Layer 1">
    <g>
      <path class="cls-1" d="m176.23,52.38C124.86,95.49,34.45,208.65,34.45,301.99c0,78.3,63.47,141.77,141.77,141.77s141.77-63.47,141.77-141.77c0-93.34-90.41-206.49-141.77-249.61Z"/>
      <path class="cls-1" d="m176.23,482.32C79.06,482.32,0,403.26,0,306.09c0-63.55,33.87-129.8,62.28-174.19C99.24,74.15,142.33,28.46,170.33,4.95l5.9-4.95,5.9,4.95c28,23.5,71.08,69.19,108.05,126.95,28.41,44.39,62.28,110.64,62.28,174.19,0,97.17-79.06,176.23-176.23,176.23Zm0-458.23C110.42,82.05,18.35,207.04,18.35,306.09c0,87.05,70.82,157.87,157.87,157.87s157.87-70.82,157.87-157.87c0-99.06-92.07-224.05-157.87-282Z"/>
    </g>
  </g>
</svg>