<?xml version="1.0" encoding="UTF-8"?>
<svg id="Layer_2" data-name="Layer 2" xmlns="http://www.w3.org/2000/svg" viewBox="0 0 282.04 299.1">
  <defs>
    <style>
      .cls-1 {
        fill: #fff;
        stroke-width: 0px;
      }
    </style>
  </defs>
  <g id="Layer_1-2" data-name="Layer 1">
    <g>
      <path class="cls-1" d="m282.04,299.1H0V0h282.04v299.1Zm-277.9-4.13h273.77V4.13H4.13v290.83Z"/>
      <g>
        <path class="cls-1" d="m86.02,115c-26.12,0-47.36-21.25-47.36-47.36s21.25-47.36,47.36-47.36,47.36,21.25,47.36,47.36-21.25,47.36-47.36,47.36Zm0-90.59c-23.84,0-43.23,19.39-43.23,43.23s19.39,43.23,43.23,43.23,43.23-19.39,43.23-43.23-19.39-43.23-43.23-43.23Z"/>
        <path class="cls-1" d="m196.02,115c-26.11,0-47.36-21.25-47.36-47.36s21.25-47.36,47.36-47.36,47.36,21.25,47.36,47.36-21.25,47.36-47.36,47.36Zm0-90.59c-23.83,0-43.23,19.39-43.23,43.23s19.39,43.23,43.23,43.23,43.23-19.39,43.23-43.23-19.39-43.23-43.23-43.23Z"/>
      </g>
      <g>
        <path class="cls-1" d="m86.02,233.04c-26.12,0-47.36-21.25-47.36-47.36s21.25-47.36,47.36-47.36,47.36,21.25,47.36,47.36-21.25,47.36-47.36,47.36Zm0-90.59c-23.84,0-43.23,19.39-43.23,43.23s19.39,43.23,43.23,43.23,43.23-19.39,43.23-43.23-19.39-43.23-43.23-43.23Z"/>
        <path class="cls-1" d="m196.02,233.04c-26.11,0-47.36-21.25-47.36-47.36s21.25-47.36,47.36-47.36,47.36,21.25,47.36,47.36-21.25,47.36-47.36,47.36Zm0-90.59c-23.83,0-43.23,19.39-43.23,43.23s19.39,43.23,43.23,43.23,43.23-19.39,43.23-43.23-19.39-43.23-43.23-43.23Z"/>
      </g>
      <g>
        <path class="cls-1" d="m127.4,257.98c-3.46,0-6.27-2.82-6.27-6.27s2.82-6.27,6.27-6.27,6.27,2.82,6.27,6.27-2.82,6.27-6.27,6.27Zm0-8.42c-1.18,0-2.14.96-2.14,2.14s.96,2.14,2.14,2.14,2.14-.96,2.14-2.14-.96-2.14-2.14-2.14Z"/>
        <path class="cls-1" d="m154.63,257.98c-3.46,0-6.27-2.82-6.27-6.27s2.82-6.27,6.27-6.27,6.27,2.82,6.27,6.27-2.82,6.27-6.27,6.27Zm0-8.42c-1.18,0-2.14.96-2.14,2.14s.96,2.14,2.14,2.14,2.14-.96,2.14-2.14-.96-2.14-2.14-2.14Z"/>
      </g>
      <g>
        <path class="cls-1" d="m127.4,281.49c-3.46,0-6.27-2.82-6.27-6.27s2.82-6.27,6.27-6.27,6.27,2.82,6.27,6.27-2.82,6.27-6.27,6.27Zm0-8.42c-1.18,0-2.14.96-2.14,2.14s.96,2.14,2.14,2.14,2.14-.96,2.14-2.14-.96-2.14-2.14-2.14Z"/>
        <path class="cls-1" d="m154.63,281.49c-3.46,0-6.27-2.82-6.27-6.27s2.82-6.27,6.27-6.27,6.27,2.82,6.27,6.27-2.82,6.27-6.27,6.27Zm0-8.42c-1.18,0-2.14.96-2.14,2.14s.96,2.14,2.14,2.14,2.14-.96,2.14-2.14-.96-2.14-2.14-2.14Z"/>
      </g>
    </g>
  </g>
</svg>