<?xml version="1.0" encoding="UTF-8"?>
<svg id="Layer_2" data-name="Layer 2" xmlns="http://www.w3.org/2000/svg" viewBox="0 0 501.34 242.21">
  <defs>
    <style>
      .cls-1 {
        fill: #fff;
        stroke-width: 0px;
      }
    </style>
  </defs>
  <g id="Layer_1-2" data-name="Layer 1">
    <g>
      <g>
        <rect class="cls-1" x="83.64" y="214.13" width="167.55" height="4.13"/>
        <g>
          <polygon class="cls-1" points="30.2 84.02 30.98 82.14 30.96 82.12 30.98 82.12 30.96 82.12 29.5 80.66 31.78 80.2 33.06 82.12 31 82.12 32.42 83.58 30.99 82.15 30.2 84.02"/>
          <rect class="cls-1" x="63.87" y="132.12" width="4.13" height="1.11" transform="translate(-51.06 41.77) rotate(-25.73)"/>
          <rect class="cls-1" x="66.18" y="131.11" width="185.01" height="4.13"/>
          <path class="cls-1" d="m38.56,81.94l-4.11-.45c.02-.19.05-.38.08-.58.02-.14.05-.29.06-.44C41.64,34.55,82.2,0,128.96,0h122.23v4.13h-122.23c-44.74,0-83.54,33.04-90.26,76.86-.01.13-.05.36-.08.59l-.05.36Z"/>
          <rect class="cls-1" x="250.15" width="1.04" height="4.13"/>
          <g>
            <rect class="cls-1" x="141.53" y="40.69" width="4.13" height="41.04"/>
            <rect class="cls-1" x="123.08" y="59.14" width="41.04" height="4.13"/>
          </g>
          <g>
            <rect class="cls-1" x="248.1" y="40.69" width="4.13" height="41.04"/>
            <rect class="cls-1" x="229.64" y="59.14" width="41.04" height="4.13"/>
          </g>
          <g>
            <path class="cls-1" d="m36.03,151.71c-19.87,0-36.03-16.16-36.03-36.03s16.16-36.03,36.03-36.03,35.99,16.16,35.99,36.03c0,6.11-1.56,12.16-4.51,17.5-6.36,11.43-18.42,18.53-31.48,18.53Zm0-67.92c-17.59,0-31.89,14.31-31.89,31.89s14.31,31.89,31.89,31.89c11.56,0,22.23-6.28,27.86-16.4,2.61-4.72,3.99-10.08,3.99-15.5,0-17.59-14.29-31.89-31.86-31.89Z"/>
            <rect class="cls-1" x="66.18" y="131.11" width="47.06" height="4.13"/>
            <path class="cls-1" d="m83.64,218.26h-13.86c-19.75,0-35.82-16.07-35.82-35.82v-32.8h4.13v32.8c0,17.47,14.21,31.69,31.69,31.69h13.86v4.13Z"/>
          </g>
          <g>
            <rect class="cls-1" x="434.85" y="130.61" width="1.11" height="4.13" transform="translate(126.88 467.33) rotate(-64.27)"/>
            <rect class="cls-1" x="250.15" y="214.13" width="167.55" height="4.13"/>
            <rect class="cls-1" x="250.15" y="131.11" width="185.01" height="4.13"/>
            <path class="cls-1" d="m462.78,81.95l-.05-.36c-.04-.22-.07-.45-.1-.69-6.71-43.71-45.51-76.76-90.25-76.76h-122.23V0h122.23c46.76,0,87.32,34.55,94.34,80.37.03.26.05.41.08.55.03.19.06.38.08.57l-4.11.46Z"/>
            <rect class="cls-1" x="250.15" width="1.04" height="4.13"/>
            <g>
              <rect class="cls-1" x="355.68" y="40.69" width="4.13" height="41.04"/>
              <rect class="cls-1" x="337.23" y="59.14" width="41.04" height="4.13"/>
            </g>
            <g>
              <path class="cls-1" d="m465.32,151.71c-13.05,0-25.11-7.1-31.48-18.52-2.96-5.34-4.52-11.4-4.52-17.51,0-19.87,16.15-36.03,35.99-36.03s36.03,16.16,36.03,36.03-16.16,36.03-36.03,36.03Zm0-67.92c-17.57,0-31.86,14.31-31.86,31.89,0,5.41,1.38,10.77,4,15.5,5.63,10.11,16.31,16.39,27.86,16.39,17.59,0,31.89-14.31,31.89-31.89s-14.31-31.89-31.89-31.89Z"/>
              <rect class="cls-1" x="388.11" y="131.11" width="47.06" height="4.13"/>
              <path class="cls-1" d="m431.56,218.26h-13.86v-4.13h13.86c17.47,0,31.68-14.21,31.68-31.69v-32.8h4.13v32.8c0,19.75-16.07,35.82-35.82,35.82Z"/>
            </g>
          </g>
        </g>
      </g>
      <g>
        <path class="cls-1" d="m104.47,242.21h-28.09v-28.09h28.09v28.09Zm-23.96-4.13h19.82v-19.82h-19.82v19.82Z"/>
        <path class="cls-1" d="m408.94,242.21h-28.09v-28.09h28.09v28.09Zm-23.96-4.13h19.82v-19.82h-19.82v19.82Z"/>
      </g>
    </g>
  </g>
</svg>