<?xml version="1.0" encoding="UTF-8"?>
<svg id="Layer_2" data-name="Layer 2" xmlns="http://www.w3.org/2000/svg" viewBox="0 0 676.24 1128.5">
  <defs>
    <style>
      .cls-1 {
        fill: #8e52f9;
        stroke-width: 0px;
      }
    </style>
  </defs>
  <g id="Layer_1-2" data-name="Layer 1">
    <g>
      <path class="cls-1" d="m252.37,513.13c-19.79,0-35.89,16.1-35.89,35.89v152.4c0,28.97-14.07,56.81-37.64,74.48-32.13,23.23-51.28,60.66-51.28,100.16,0,68.81,55.99,124.8,124.81,124.8s124.79-55.98,124.79-124.8c0-39.5-19.14-76.93-51.2-100.12l-.06-.04c-23.58-17.68-37.65-45.52-37.65-74.48v-152.4c0-19.79-16.09-35.89-35.88-35.89Z"/>
      <path class="cls-1" d="m417.4,685.59l-1.51-1.31V163.22c0-43.42-17.02-84.36-47.93-115.27C337.05,17.03,295.99,0,252.33,0,162.15,0,88.78,73.22,88.78,163.22v521.06l-1.51,1.31C31.81,733.64,0,803.11,0,876.19c0,139.12,113.19,252.31,252.33,252.31s252.33-113.19,252.33-252.31c0-73.08-31.81-142.55-87.27-190.59Zm-165.07,371.93c-100,0-181.36-81.35-181.36-181.34,0-57.44,27.76-112.06,74.26-146.11,9.09-6.65,14.52-17.36,14.52-28.62V163.22c0-50.87,41.53-92.25,92.58-92.25,24.69,0,47.93,9.65,65.44,27.16,17.5,17.52,27.14,40.64,27.14,65.09v538.23c0,11.27,5.43,21.97,14.52,28.62,46.5,34.03,74.26,88.65,74.26,146.11,0,99.99-81.36,181.34-181.36,181.34Z"/>
      <rect class="cls-1" x="480.76" y="589.33" width="195.48" height="70.97" rx="35.49" ry="35.49"/>
      <rect class="cls-1" x="480.76" y="430.54" width="195.48" height="70.97" rx="35.49" ry="35.49"/>
      <rect class="cls-1" x="480.76" y="271.75" width="195.48" height="70.97" rx="35.49" ry="35.49"/>
      <rect class="cls-1" x="480.76" y="112.96" width="195.48" height="70.97" rx="35.49" ry="35.49"/>
    </g>
  </g>
</svg>